<?xml version="1.0" encoding="UTF-8"?><svg xmlns="http://www.w3.org/2000/svg" xmlns:xlink="http://www.w3.org/1999/xlink" fill-opacity="1" color-rendering="auto" color-interpolation="auto" text-rendering="auto" stroke="black" stroke-linecap="square" width="986" stroke-miterlimit="10" shape-rendering="auto" stroke-opacity="1" fill="black" stroke-dasharray="none" font-weight="normal" stroke-width="1" height="1111" font-family="'Dialog'" font-style="normal" stroke-linejoin="miter" font-size="12px" stroke-dashoffset="0" image-rendering="auto">
  <!--Generated by ySVG 2.5-->
  <defs id="genericDefs"/>
  <g>
    <g fill="white" text-rendering="geometricPrecision" shape-rendering="geometricPrecision" transform="translate(92,425)" stroke="white">
      <rect x="-92" width="986" height="1111" y="-425" clip-path="url(#clipPath2)" stroke="none"/>
    </g>
    <g fill="rgb(245,245,245)" text-rendering="geometricPrecision" shape-rendering="geometricPrecision" transform="matrix(1,0,0,1,92,425)" stroke="rgb(245,245,245)">
      <rect x="-5.1006" y="-195.4219" clip-path="url(#clipPath2)" width="697.5419" rx="4" ry="4" height="611.9087" stroke="none"/>
      <rect x="-5.1006" y="-195.4219" clip-path="url(#clipPath2)" fill="rgb(235,235,235)" width="697.5419" height="21.4609" stroke="none"/>
    </g>
    <g font-size="15px" stroke-linecap="butt" transform="matrix(1,0,0,1,92,425)" text-rendering="geometricPrecision" font-family="sans-serif" shape-rendering="geometricPrecision" stroke-miterlimit="1.45">
      <text x="581.5302" xml:space="preserve" y="-179.4985" clip-path="url(#clipPath2)" stroke="none">Serial MAC CLI</text>
      <rect x="-5.1006" y="-195.4219" clip-path="url(#clipPath2)" fill="none" width="697.5419" stroke-dasharray="6,2" rx="4" ry="4" height="611.9087"/>
    </g>
    <g fill="rgb(225,225,225)" text-rendering="geometricPrecision" shape-rendering="geometricPrecision" transform="matrix(1,0,0,1,92,425)" stroke="rgb(225,225,225)">
      <rect x="32.5" y="-158.9609" clip-path="url(#clipPath2)" width="644.9413" rx="4" ry="4" height="332.1581" stroke="none"/>
      <rect x="32.5" y="-158.9609" clip-path="url(#clipPath2)" fill="rgb(235,235,235)" width="644.9413" height="21.4609" stroke="none"/>
    </g>
    <g font-size="15px" stroke-linecap="butt" transform="matrix(1,0,0,1,92,425)" text-rendering="geometricPrecision" font-family="sans-serif" shape-rendering="geometricPrecision" stroke-miterlimit="1.45">
      <text x="652.1869" xml:space="preserve" y="-143.0376" clip-path="url(#clipPath2)" stroke="none">CLI</text>
      <rect x="32.5" y="-158.9609" clip-path="url(#clipPath2)" fill="none" width="644.9413" stroke-dasharray="6,2" rx="4" ry="4" height="332.1581"/>
    </g>
    <g fill="rgb(153,204,0)" text-rendering="geometricPrecision" shape-rendering="geometricPrecision" transform="matrix(1,0,0,1,92,425)" stroke="rgb(153,204,0)">
      <rect x="174.25" y="-111.1914" clip-path="url(#clipPath2)" width="116" rx="4" ry="4" height="30" stroke="none"/>
    </g>
    <g text-rendering="geometricPrecision" stroke-miterlimit="1.45" shape-rendering="geometricPrecision" font-family="sans-serif" transform="matrix(1,0,0,1,92,425)" stroke-linecap="butt">
      <text x="203.9814" xml:space="preserve" y="-92.0371" clip-path="url(#clipPath2)" stroke="none">stringhex</text>
      <rect x="174.25" y="-111.1914" clip-path="url(#clipPath2)" fill="none" width="116" rx="4" ry="4" height="30"/>
    </g>
    <g fill="rgb(153,204,0)" text-rendering="geometricPrecision" shape-rendering="geometricPrecision" transform="matrix(1,0,0,1,92,425)" stroke="rgb(153,204,0)">
      <rect x="47.5" y="-38.2695" clip-path="url(#clipPath2)" width="242.75" rx="4" ry="4" height="30" stroke="none"/>
    </g>
    <g text-rendering="geometricPrecision" stroke-miterlimit="1.45" shape-rendering="geometricPrecision" font-family="sans-serif" transform="matrix(1,0,0,1,92,425)" stroke-linecap="butt">
      <text x="133.127" xml:space="preserve" y="-19.1152" clip-path="url(#clipPath2)" stroke="none">serialmaccli</text>
      <rect x="47.5" y="-38.2695" clip-path="url(#clipPath2)" fill="none" width="242.75" rx="4" ry="4" height="30"/>
    </g>
    <g fill="rgb(255,102,0)" text-rendering="geometricPrecision" shape-rendering="geometricPrecision" transform="matrix(1,0,0,1,92,425)" stroke="rgb(255,102,0)">
      <rect x="47.5" y="-111.1914" clip-path="url(#clipPath2)" width="116" rx="4" ry="4" height="30" stroke="none"/>
    </g>
    <g text-rendering="geometricPrecision" stroke-miterlimit="1.45" shape-rendering="geometricPrecision" font-family="sans-serif" transform="matrix(1,0,0,1,92,425)" stroke-linecap="butt">
      <text x="84.8896" xml:space="preserve" y="-92.0371" clip-path="url(#clipPath2)" stroke="none">docopt</text>
      <rect x="47.5" y="-111.1914" clip-path="url(#clipPath2)" fill="none" width="116" rx="4" ry="4" height="30"/>
    </g>
    <g fill="rgb(153,204,0)" text-rendering="geometricPrecision" shape-rendering="geometricPrecision" transform="matrix(1,0,0,1,92,425)" stroke="rgb(153,204,0)">
      <rect x="174.25" y="71.4471" clip-path="url(#clipPath2)" width="116" rx="4" ry="4" height="30" stroke="none"/>
    </g>
    <g text-rendering="geometricPrecision" stroke-miterlimit="1.45" shape-rendering="geometricPrecision" font-family="sans-serif" transform="matrix(1,0,0,1,92,425)" stroke-linecap="butt">
      <text x="180.2188" xml:space="preserve" y="90.6014" clip-path="url(#clipPath2)" stroke="none">serialmachandler</text>
      <rect x="174.25" y="71.4471" clip-path="url(#clipPath2)" fill="none" width="116" rx="4" ry="4" height="30"/>
      <path fill="none" d="M232.25 -73.2011 L232.25 -46.2899" clip-path="url(#clipPath2)" stroke="rgb(51,102,255)"/>
      <path fill="rgb(51,102,255)" d="M232.25 -81.2011 L227.25 -69.2011 L232.25 -72.2011 L237.25 -69.2011 Z" clip-path="url(#clipPath2)" stroke="none"/>
      <path fill="rgb(51,102,255)" d="M232.25 -38.2899 L237.25 -50.2899 L232.25 -47.2899 L227.25 -50.2899 Z" clip-path="url(#clipPath2)" stroke="none"/>
      <path fill="none" d="M105.5 -81.1741 L105.5 -46.2715" clip-path="url(#clipPath2)"/>
      <path d="M105.5 -38.2715 L110.5 -50.2715 L105.5 -47.2715 L100.5 -50.2715 Z" clip-path="url(#clipPath2)" stroke="none"/>
      <path fill="none" d="M232.25 71.4444 L232.25 -0.2468" clip-path="url(#clipPath2)" stroke="red"/>
      <path fill="red" d="M232.25 -8.2468 L227.25 3.7532 L232.25 0.7532 L237.25 3.7532 Z" clip-path="url(#clipPath2)" stroke="none"/>
      <text fill="red" x="246.2522" xml:space="preserve" y="28.7587" clip-path="url(#clipPath2)" stroke="none">Buffer/Frame</text>
      <text fill="red" x="265.3918" xml:space="preserve" y="42.7275" clip-path="url(#clipPath2)" stroke="none">Events</text>
    </g>
    <g fill="rgb(205,205,205)" text-rendering="geometricPrecision" shape-rendering="geometricPrecision" transform="matrix(1,0,0,1,92,425)" stroke="rgb(205,205,205)">
      <rect x="328.8083" y="-106.5" clip-path="url(#clipPath2)" width="333.633" rx="4" ry="4" height="264.6971" stroke="none"/>
      <rect x="328.8083" y="-106.5" clip-path="url(#clipPath2)" fill="rgb(235,235,235)" width="333.633" height="21.4609" stroke="none"/>
    </g>
    <g font-size="15px" stroke-linecap="butt" transform="matrix(1,0,0,1,92,425)" text-rendering="geometricPrecision" font-family="sans-serif" shape-rendering="geometricPrecision" stroke-miterlimit="1.45">
      <text x="591.6302" xml:space="preserve" y="-90.5767" clip-path="url(#clipPath2)" stroke="none">Observer</text>
      <rect x="328.8083" y="-106.5" clip-path="url(#clipPath2)" fill="none" width="333.633" stroke-dasharray="6,2" rx="4" ry="4" height="264.6971"/>
    </g>
    <g fill="rgb(153,204,0)" text-rendering="geometricPrecision" shape-rendering="geometricPrecision" transform="matrix(1,0,0,1,92,425)" stroke="rgb(153,204,0)">
      <rect x="344" width="301" height="80" y="-63" clip-path="url(#clipPath2)" stroke="none"/>
      <rect x="343" y="-64" clip-path="url(#clipPath2)" fill="rgb(218,255,0)" width="1" height="82" stroke="none"/>
      <rect x="344" y="-64" clip-path="url(#clipPath2)" fill="rgb(218,255,0)" width="301" height="1" stroke="none"/>
      <rect x="344" y="17" clip-path="url(#clipPath2)" fill="rgb(107,142,0)" width="302" height="1" stroke="none"/>
      <rect x="645" y="-64" clip-path="url(#clipPath2)" fill="rgb(107,142,0)" width="1" height="81" stroke="none"/>
    </g>
    <g text-rendering="geometricPrecision" stroke-miterlimit="1.45" shape-rendering="geometricPrecision" font-family="sans-serif" transform="matrix(1,0,0,1,92,425)" stroke-linecap="butt">
      <text x="448.6531" xml:space="preserve" y="-48.3613" clip-path="url(#clipPath3)" stroke="none">&lt;&lt;Interface&gt;&gt;</text>
      <text x="462.1124" font-size="13px" y="-24.4644" clip-path="url(#clipPath3)" stroke="none" font-weight="bold" xml:space="preserve">Observer</text>
      <line stroke-linecap="square" clip-path="url(#clipPath3)" fill="none" x1="344" x2="646" y1="-16" y2="-16" stroke-miterlimit="10"/>
      <line stroke-linecap="square" clip-path="url(#clipPath3)" fill="none" x1="344" x2="646" y1="-6" y2="-6" stroke-miterlimit="10"/>
      <text x="348.8083" xml:space="preserve" y="9.7402" clip-path="url(#clipPath3)" stroke="none">void Update ( Event *event )</text>
    </g>
    <g fill="rgb(153,204,0)" text-rendering="geometricPrecision" shape-rendering="geometricPrecision" transform="matrix(1,0,0,1,92,425)" stroke="rgb(153,204,0)">
      <rect x="344" width="301" height="111" y="30" clip-path="url(#clipPath2)" stroke="none"/>
      <rect x="343" y="29" clip-path="url(#clipPath2)" fill="rgb(218,255,0)" width="1" height="113" stroke="none"/>
      <rect x="344" y="29" clip-path="url(#clipPath2)" fill="rgb(218,255,0)" width="301" height="1" stroke="none"/>
      <rect x="344" y="141" clip-path="url(#clipPath2)" fill="rgb(107,142,0)" width="302" height="1" stroke="none"/>
      <rect x="645" y="29" clip-path="url(#clipPath2)" fill="rgb(107,142,0)" width="1" height="112" stroke="none"/>
    </g>
    <g text-rendering="geometricPrecision" stroke-miterlimit="1.45" shape-rendering="geometricPrecision" font-family="sans-serif" transform="matrix(1,0,0,1,92,425)" stroke-linecap="butt">
      <text x="448.6531" xml:space="preserve" y="45.8358" clip-path="url(#clipPath4)" stroke="none">&lt;&lt;Interface&gt;&gt;</text>
      <text x="468.0665" font-size="13px" y="69.7328" clip-path="url(#clipPath4)" stroke="none" font-weight="bold" xml:space="preserve">Subject</text>
      <line stroke-linecap="square" clip-path="url(#clipPath4)" fill="none" x1="344" x2="646" y1="77" y2="77" stroke-miterlimit="10"/>
      <line stroke-linecap="square" clip-path="url(#clipPath4)" fill="none" x1="344" x2="646" y1="87" y2="87" stroke-miterlimit="10"/>
      <text x="348.8083" xml:space="preserve" y="103.9374" clip-path="url(#clipPath4)" stroke="none">static void Attach ( Observer *observer );</text>
      <text x="348.8083" xml:space="preserve" y="117.9061" clip-path="url(#clipPath4)" stroke="none">static void Detach ( Observer *observer );</text>
      <text x="348.8083" xml:space="preserve" y="131.8749" clip-path="url(#clipPath4)" stroke="none">static void Notify ( Event *event, Filter filter);</text>
      <path fill="none" stroke-dasharray="6,2" d="M290.2495 -23.2695 L328.8246 -23.2695" clip-path="url(#clipPath2)"/>
    </g>
    <g stroke-linecap="butt" transform="matrix(1,0,0,1,92,425)" fill="white" text-rendering="geometricPrecision" shape-rendering="geometricPrecision" stroke-dasharray="6,2" stroke="white" stroke-miterlimit="1.45">
      <path d="M343.8246 -23.2695 L327.8246 -29.2695 L327.8246 -17.2695 Z" stroke="none" clip-path="url(#clipPath2)"/>
      <path fill="none" stroke-dasharray="none" d="M343.8246 -23.2695 L327.8246 -29.2695 L327.8246 -17.2695 Z" clip-path="url(#clipPath2)" stroke="black"/>
      <path fill="none" d="M290.2812 86.4471 L328.7979 86.4471" clip-path="url(#clipPath2)" stroke="black"/>
      <path d="M343.7979 86.4471 L327.7979 80.4471 L327.7979 92.4471 Z" clip-path="url(#clipPath2)" stroke="none"/>
      <path fill="none" stroke-dasharray="none" d="M343.7979 86.4471 L327.7979 80.4471 L327.7979 92.4471 Z" clip-path="url(#clipPath2)" stroke="black"/>
    </g>
    <g fill="rgb(225,225,225)" text-rendering="geometricPrecision" shape-rendering="geometricPrecision" transform="matrix(1,0,0,1,92,425)" stroke="rgb(225,225,225)">
      <rect x="159.25" y="195.1506" clip-path="url(#clipPath2)" width="518.1913" rx="4" ry="4" height="89.5075" stroke="none"/>
      <rect x="159.25" y="195.1506" clip-path="url(#clipPath2)" fill="rgb(235,235,235)" width="518.1913" height="21.4609" stroke="none"/>
    </g>
    <g font-size="15px" stroke-linecap="butt" transform="matrix(1,0,0,1,92,425)" text-rendering="geometricPrecision" font-family="sans-serif" shape-rendering="geometricPrecision" stroke-miterlimit="1.45">
      <text x="641.7645" xml:space="preserve" y="211.0739" clip-path="url(#clipPath2)" stroke="none">MAC</text>
      <rect x="159.25" y="195.1506" clip-path="url(#clipPath2)" fill="none" width="518.1913" stroke-dasharray="6,2" rx="4" ry="4" height="89.5075"/>
    </g>
    <g fill="rgb(153,204,0)" text-rendering="geometricPrecision" shape-rendering="geometricPrecision" transform="matrix(1,0,0,1,92,425)" stroke="rgb(153,204,0)">
      <rect x="174.25" y="239.6581" clip-path="url(#clipPath2)" width="354.5747" rx="4" ry="4" height="30" stroke="none"/>
    </g>
    <g text-rendering="geometricPrecision" stroke-miterlimit="1.45" shape-rendering="geometricPrecision" font-family="sans-serif" transform="matrix(1,0,0,1,92,425)" stroke-linecap="butt">
      <text x="301.2112" xml:space="preserve" y="258.8123" clip-path="url(#clipPath2)" stroke="none">serialmac library</text>
      <rect x="174.25" y="239.6581" clip-path="url(#clipPath2)" fill="none" width="354.5747" rx="4" ry="4" height="30"/>
    </g>
    <g fill="rgb(153,204,0)" text-rendering="geometricPrecision" shape-rendering="geometricPrecision" transform="matrix(1,0,0,1,92,425)" stroke="rgb(153,204,0)">
      <rect x="536.8247" y="239.6581" clip-path="url(#clipPath2)" width="125.6166" rx="4" ry="4" height="30" stroke="none"/>
    </g>
    <g text-rendering="geometricPrecision" stroke-miterlimit="1.45" shape-rendering="geometricPrecision" font-family="sans-serif" transform="matrix(1,0,0,1,92,425)" stroke-linecap="butt">
      <text x="587.0851" xml:space="preserve" y="258.8123" clip-path="url(#clipPath2)" stroke="none">CRC</text>
      <rect x="536.8247" y="239.6581" clip-path="url(#clipPath2)" fill="none" width="125.6166" rx="4" ry="4" height="30"/>
      <path fill="none" d="M168.875 -0.2883 L168.875 187.1351" clip-path="url(#clipPath2)" stroke="rgb(51,102,255)"/>
      <path fill="rgb(51,102,255)" d="M168.875 -8.2883 L163.875 3.7117 L168.875 0.7117 L173.875 3.7117 Z" clip-path="url(#clipPath2)" stroke="none"/>
      <path fill="rgb(51,102,255)" d="M168.875 195.1351 L173.875 183.1351 L168.875 186.1351 L163.875 183.1351 Z" clip-path="url(#clipPath2)" stroke="none"/>
      <text fill="rgb(51,102,255)" x="120.7988" xml:space="preserve" y="90.6104" clip-path="url(#clipPath2)" stroke="none">RX/TX</text>
      <text fill="rgb(51,102,255)" x="119.7441" xml:space="preserve" y="104.5792" clip-path="url(#clipPath2)" stroke="none">Frame</text>
      <path fill="none" d="M47.5052 -23.2695 L-38.1334 -23.2695 L-38.1334 254.6581 L151.2266 254.6581" clip-path="url(#clipPath2)"/>
      <path d="M159.2266 254.6581 L147.2266 249.6581 L150.2266 254.6581 L147.2266 259.6581 Z" clip-path="url(#clipPath2)" stroke="none"/>
      <path fill="none" d="M104.427 -8.2519 L104.427 239.9043 L151.242 239.9043" clip-path="url(#clipPath2)" stroke="red"/>
      <path fill="red" d="M159.242 239.9043 L147.242 234.9043 L150.242 239.9043 L147.242 244.9043 Z" clip-path="url(#clipPath2)" stroke="none"/>
      <text fill="red" x="108.968" xml:space="preserve" y="200.0899" clip-path="url(#clipPath2)" stroke="none">Callback</text>
      <text fill="red" x="112.9231" xml:space="preserve" y="214.0586" clip-path="url(#clipPath2)" stroke="none">on R/W</text>
      <text fill="red" x="114.1126" xml:space="preserve" y="228.0274" clip-path="url(#clipPath2)" stroke="none">Events</text>
      <path fill="none" d="M232.25 195.1257 L232.25 109.4382" clip-path="url(#clipPath2)" stroke="red"/>
      <path fill="red" d="M232.25 101.4382 L227.25 113.4382 L232.25 110.4382 L237.25 113.4382 Z" clip-path="url(#clipPath2)" stroke="none"/>
      <text fill="red" x="224.7959" xml:space="preserve" y="145.4688" clip-path="url(#clipPath2)" stroke="none">Buffer/Frame</text>
      <text fill="red" x="235.665" xml:space="preserve" y="159.4375" clip-path="url(#clipPath2)" stroke="none">Callbacks</text>
    </g>
    <g fill="rgb(225,225,225)" text-rendering="geometricPrecision" shape-rendering="geometricPrecision" transform="matrix(1,0,0,1,92,425)" stroke="rgb(225,225,225)">
      <rect x="32.5" y="320.0259" clip-path="url(#clipPath2)" width="644.9413" rx="4" ry="4" height="81.4609" stroke="none"/>
      <rect x="32.5" y="320.0259" clip-path="url(#clipPath2)" fill="rgb(235,235,235)" width="644.9413" height="21.4609" stroke="none"/>
    </g>
    <g font-size="15px" stroke-linecap="butt" transform="matrix(1,0,0,1,92,425)" text-rendering="geometricPrecision" font-family="sans-serif" shape-rendering="geometricPrecision" stroke-miterlimit="1.45">
      <text x="645.5438" xml:space="preserve" y="335.9492" clip-path="url(#clipPath2)" stroke="none">HAL</text>
      <rect x="32.5" y="320.0259" clip-path="url(#clipPath2)" fill="none" width="644.9413" stroke-dasharray="6,2" rx="4" ry="4" height="81.4609"/>
    </g>
    <g fill="rgb(255,102,0)" text-rendering="geometricPrecision" shape-rendering="geometricPrecision" transform="matrix(1,0,0,1,92,425)" stroke="rgb(255,102,0)">
      <rect x="54.0747" y="356.4868" clip-path="url(#clipPath2)" width="608.3666" rx="4" ry="4" height="30" stroke="none"/>
    </g>
    <g text-rendering="geometricPrecision" stroke-miterlimit="1.45" shape-rendering="geometricPrecision" font-family="sans-serif" transform="matrix(1,0,0,1,92,425)" stroke-linecap="butt">
      <text x="322.5217" xml:space="preserve" y="375.6411" clip-path="url(#clipPath2)" stroke="none">libserialport</text>
      <rect x="54.0747" y="356.4868" clip-path="url(#clipPath2)" fill="none" width="608.3666" rx="4" ry="4" height="30"/>
      <path fill="none" d="M47.5008 -23.2695 L-37.4536 -23.2695 L-37.4536 371.4868 L24.4737 371.4868" clip-path="url(#clipPath2)"/>
      <path d="M32.4737 371.4868 L20.4737 366.4868 L23.4737 371.4868 L20.4737 376.4868 Z" clip-path="url(#clipPath2)" stroke="none"/>
      <text x="-74.0424" xml:space="preserve" y="-49.1152" clip-path="url(#clipPath2)" stroke="none">Initialization</text>
      <path fill="none" d="M418.3456 292.6594 L418.3456 312.0511" clip-path="url(#clipPath2)" stroke="rgb(51,102,255)"/>
      <path fill="rgb(51,102,255)" d="M418.3456 284.6594 L413.3456 296.6594 L418.3456 293.6594 L423.3456 296.6594 Z" clip-path="url(#clipPath2)" stroke="none"/>
      <path fill="rgb(51,102,255)" d="M418.3456 320.0511 L423.3456 308.0511 L418.3456 311.0511 L413.3456 308.0511 Z" clip-path="url(#clipPath2)" stroke="none"/>
      <text fill="rgb(51,102,255)" x="370.9785" xml:space="preserve" y="300.0119" clip-path="url(#clipPath2)" stroke="none">Read/</text>
      <text fill="rgb(51,102,255)" x="372.2353" xml:space="preserve" y="313.9807" clip-path="url(#clipPath2)" stroke="none">Write</text>
      <path fill="none" d="M58.7907 320.0242 L58.7907 -0.2694" clip-path="url(#clipPath2)" stroke="red"/>
      <path fill="red" d="M58.7907 -8.2694 L53.7907 3.7306 L58.7907 0.7306 L63.7907 3.7306 Z" clip-path="url(#clipPath2)" stroke="none"/>
      <text fill="red" x="11.4235" xml:space="preserve" y="185.0637" clip-path="url(#clipPath2)" stroke="none">Read/</text>
      <text fill="red" x="12.6803" xml:space="preserve" y="199.0325" clip-path="url(#clipPath2)" stroke="none">Write</text>
      <text fill="red" x="8.4762" xml:space="preserve" y="213.0012" clip-path="url(#clipPath2)" stroke="none">Events</text>
    </g>
    <g fill="rgb(245,245,245)" text-rendering="geometricPrecision" shape-rendering="geometricPrecision" transform="matrix(1,0,0,1,92,425)" stroke="rgb(245,245,245)">
      <rect x="722.4413" y="378.7003" clip-path="url(#clipPath2)" width="155.6166" rx="4" ry="4" height="292.1523" stroke="none"/>
      <rect x="722.4413" y="378.7003" clip-path="url(#clipPath2)" fill="rgb(235,235,235)" width="155.6166" height="21.4609" stroke="none"/>
    </g>
    <g font-size="15px" stroke-linecap="butt" transform="matrix(1,0,0,1,92,425)" text-rendering="geometricPrecision" font-family="sans-serif" shape-rendering="geometricPrecision" stroke-miterlimit="1.45">
      <text x="818.138" xml:space="preserve" y="394.6237" clip-path="url(#clipPath2)" stroke="none">Caption</text>
      <rect x="722.4413" y="378.7003" clip-path="url(#clipPath2)" fill="none" width="155.6166" stroke-dasharray="6,2" rx="4" ry="4" height="292.1523"/>
    </g>
    <g fill="rgb(153,204,0)" text-rendering="geometricPrecision" shape-rendering="geometricPrecision" transform="matrix(1,0,0,1,92,425)" stroke="rgb(153,204,0)">
      <rect x="737.4413" y="420.5889" clip-path="url(#clipPath2)" width="125.6166" rx="4" ry="4" height="30" stroke="none"/>
    </g>
    <g text-rendering="geometricPrecision" stroke-miterlimit="1.45" shape-rendering="geometricPrecision" font-family="sans-serif" transform="matrix(1,0,0,1,92,425)" stroke-linecap="butt">
      <text x="743.8473" xml:space="preserve" y="439.7432" clip-path="url(#clipPath2)" stroke="none">STACKFORCE code</text>
      <rect x="737.4413" y="420.5889" clip-path="url(#clipPath2)" fill="none" width="125.6166" rx="4" ry="4" height="30"/>
    </g>
    <g fill="rgb(255,102,0)" text-rendering="geometricPrecision" shape-rendering="geometricPrecision" transform="matrix(1,0,0,1,92,425)" stroke="rgb(255,102,0)">
      <rect x="737.4413" y="461.3193" clip-path="url(#clipPath2)" width="125.6166" rx="4" ry="4" height="30" stroke="none"/>
    </g>
    <g text-rendering="geometricPrecision" stroke-miterlimit="1.45" shape-rendering="geometricPrecision" font-family="sans-serif" transform="matrix(1,0,0,1,92,425)" stroke-linecap="butt">
      <text x="756.2076" xml:space="preserve" y="480.4736" clip-path="url(#clipPath2)" stroke="none">3rd Party code</text>
      <rect x="737.4413" y="461.3193" clip-path="url(#clipPath2)" fill="none" width="125.6166" rx="4" ry="4" height="30"/>
    </g>
    <g fill="rgb(153,153,153)" text-rendering="geometricPrecision" shape-rendering="geometricPrecision" transform="matrix(1,0,0,1,92,425)" stroke="rgb(153,153,153)">
      <rect x="737.4413" width="125.6166" height="30" y="502.0498" clip-path="url(#clipPath2)" stroke="none"/>
    </g>
    <g text-rendering="geometricPrecision" stroke-miterlimit="1.45" shape-rendering="geometricPrecision" font-family="sans-serif" transform="matrix(1,0,0,1,92,425)" stroke-linecap="butt">
      <text x="746.5807" xml:space="preserve" y="521.2041" clip-path="url(#clipPath2)" stroke="none">external Interface</text>
      <rect fill="none" x="737.4413" width="125.6166" height="30" y="502.0498" clip-path="url(#clipPath2)"/>
      <rect stroke-linecap="square" x="737.4413" y="542.7803" clip-path="url(#clipPath2)" width="125.6166" height="30" stroke="none" stroke-miterlimit="10"/>
      <text fill="white" x="763.6608" xml:space="preserve" y="561.9346" clip-path="url(#clipPath2)" stroke="none">Initialization</text>
      <rect fill="none" x="737.4413" width="125.6166" height="30" y="542.7803" clip-path="url(#clipPath2)"/>
    </g>
    <g fill="rgb(51,102,255)" text-rendering="geometricPrecision" shape-rendering="geometricPrecision" transform="matrix(1,0,0,1,92,425)" stroke="rgb(51,102,255)">
      <rect x="737.4413" width="125.6166" height="30" y="623.1455" clip-path="url(#clipPath2)" stroke="none"/>
    </g>
    <g stroke-linecap="butt" transform="matrix(1,0,0,1,92,425)" fill="white" text-rendering="geometricPrecision" font-family="sans-serif" shape-rendering="geometricPrecision" stroke="white" stroke-miterlimit="1.45">
      <text x="770.3199" xml:space="preserve" y="642.2998" clip-path="url(#clipPath2)" stroke="none">Data Flow</text>
      <rect x="737.4413" y="623.1455" clip-path="url(#clipPath2)" fill="none" width="125.6166" height="30" stroke="black"/>
    </g>
    <g fill="red" text-rendering="geometricPrecision" shape-rendering="geometricPrecision" transform="matrix(1,0,0,1,92,425)" stroke="red">
      <rect x="737.4413" width="125.6166" height="30" y="582.9629" clip-path="url(#clipPath2)" stroke="none"/>
    </g>
    <g stroke-linecap="butt" transform="matrix(1,0,0,1,92,425)" fill="white" text-rendering="geometricPrecision" font-family="sans-serif" shape-rendering="geometricPrecision" stroke="white" stroke-miterlimit="1.45">
      <text x="754.4088" xml:space="preserve" y="602.1172" clip-path="url(#clipPath2)" stroke="none">Event Handling</text>
      <rect x="737.4413" y="582.9629" clip-path="url(#clipPath2)" fill="none" width="125.6166" height="30" stroke="black"/>
    </g>
    <g fill="rgb(245,245,245)" text-rendering="geometricPrecision" shape-rendering="geometricPrecision" transform="matrix(1,0,0,1,92,425)" stroke="rgb(245,245,245)">
      <rect x="295.258" y="473.3156" clip-path="url(#clipPath2)" width="126" rx="4" ry="4" height="194" stroke="none"/>
      <rect x="295.258" y="473.3156" clip-path="url(#clipPath2)" fill="rgb(235,235,235)" width="126" height="21.4609" stroke="none"/>
    </g>
    <g font-size="15px" stroke-linecap="butt" transform="matrix(1,0,0,1,92,425)" text-rendering="geometricPrecision" font-family="sans-serif" shape-rendering="geometricPrecision" stroke-miterlimit="1.45">
      <text x="320.7107" xml:space="preserve" y="489.2389" clip-path="url(#clipPath2)" stroke="none">Radio Device</text>
      <rect x="295.258" y="473.3156" clip-path="url(#clipPath2)" fill="none" width="126" stroke-dasharray="6,2" rx="4" ry="4" height="194"/>
    </g>
    <g text-rendering="geometricPrecision" shape-rendering="geometricPrecision" transform="matrix(1,0,0,1,402.258,973.3156)">
      <g clip-path="url(#clipPath5)">
        <svg xmlns:svg="http://www.w3.org/2000/svg" xmlns:dc="http://purl.org/dc/elements/1.1/" xmlns:cc="http://creativecommons.org/ns#" xmlns:rdf="http://www.w3.org/1999/02/22-rdf-syntax-ns#" opacity="1" writing-mode="lr-tb" stop-color="rgb(0, 0, 0)" shape-rendering="auto" glyph-orientation-horizontal="0deg" color-profile="auto" lighting-color="rgb(255, 255, 255)" color="rgb(0, 0, 0)" font-weight="400" alignment-baseline="auto" font-style="normal" version="1.1" color-interpolation-filters="linearrgb" text-anchor="start" stroke-linecap="butt" color-interpolation="srgb" font-variant="normal" word-spacing="normal" fill-opacity="1" text-rendering="auto" clip-path="none" text-decoration="none" letter-spacing="normal" glyph-orientation-vertical="auto" display="inline" font-size-adjust="none" overflow="visible" fill="rgb(0, 0, 0)" font-stretch="normal" stroke-dasharray="none" id="svg1.svg6517" stroke-miterlimit="4" stop-opacity="1" color-rendering="auto" font-size="12" pointer-events="visiblepainted" mask="none" direction="ltr" baseline-shift="baseline" enable-background="accumulate" fill-rule="nonzero" image-rendering="auto" stroke-dashoffset="0" width="96" marker-end="none" clip="auto" cursor="auto" stroke="none" filter="none" visibility="visible" kerning="auto" stroke-width="1" font-family="&quot;Arial&quot;,&quot;Helvetica&quot;,sans-serif" flood-opacity="1" clip-rule="nonzero" src="none" height="96" unicode-bidi="normal" stroke-linejoin="miter" stroke-opacity="1" flood-color="rgb(0, 0, 0)" dominant-baseline="auto" marker-start="none" marker-mid="none">
  <defs id="svg1.defs6519">
    <linearGradient id="svg1.Background">
      <stop style="stop-color:#b8b8b8;stop-opacity:1" offset="0" id="svg1.stop4178"/>
      <stop style="stop-color:#c9c9c9;stop-opacity:1" offset="1" id="svg1.stop4180"/>
    </linearGradient>
    <filter color-interpolation-filters="sRGB" id="svg1.filter1121">
      <feFlood flood-color="rgb(0,0,0)" flood-opacity="0.59999999999999998" id="svg1.feFlood1123" result="flood"/>
      <feComposite id="svg1.feComposite1125" in2="SourceGraphic" operator="out" in="flood" result="composite1"/>
      <feGaussianBlur id="svg1.feGaussianBlur1127" stdDeviation="1" result="blur" in="composite1"/>
      <feOffset dx="0" dy="2" id="svg1.feOffset1129" result="offset"/>
      <feComposite id="svg1.feComposite1131" in2="SourceGraphic" operator="atop" in="offset" result="composite2"/>
    </filter>
    <filter color-interpolation-filters="sRGB" id="svg1.filter950">
      <feFlood flood-color="rgb(0,0,0)" flood-opacity="0.25" id="svg1.feFlood952" result="flood"/>
      <feComposite id="svg1.feComposite954" in2="SourceGraphic" operator="in" in="flood" result="composite1"/>
      <feGaussianBlur id="svg1.feGaussianBlur956" stdDeviation="1" result="blur" in="composite1"/>
      <feOffset dx="0" dy="1" id="svg1.feOffset958" result="offset"/>
      <feComposite id="svg1.feComposite960" in2="offset" operator="over" in="SourceGraphic" result="composite2"/>
    </filter>
    <clipPath id="svg1.clipPath873">
      <g style="fill:#ff00ff;fill-opacity:1;stroke:none;display:inline" id="svg1.g875" transform="matrix(0,-0.66666667,0.66604479,0,-258.25992,677.00001)">
        <path style="fill:#ff00ff;fill-opacity:1;stroke:none;display:inline" d="m 46.702703,898.22775 50.594594,0 C 138.16216,898.22775 144,904.06497 144,944.92583 l 0,50.73846 c 0,40.86071 -5.83784,46.69791 -46.702703,46.69791 l -50.594594,0 C 5.8378378,1042.3622 0,1036.525 0,995.66429 l 0,-50.73846 c 0,-40.86086 5.8378378,-46.69808 46.702703,-46.69808 z" id="svg1.path877"/>
      </g>
    </clipPath>
    <filter color-interpolation-filters="sRGB" id="svg1.filter891">
      <feGaussianBlur stdDeviation="0.71999962" id="svg1.feGaussianBlur893"/>
    </filter>
  <clipPath clipPathUnits="userSpaceOnUse" id="clipPath1">
              <path d="M0 0 L986 0 L986 1111 L0 1111 L0 0 Z"/>
            </clipPath>
            <clipPath clipPathUnits="userSpaceOnUse" id="clipPath2">
              <path d="M-92 -425 L894 -425 L894 686 L-92 686 L-92 -425 Z"/>
            </clipPath>
            <clipPath clipPathUnits="userSpaceOnUse" id="clipPath3">
              <path d="M343 -64 L343 18 L646 18 L646 -64 Z"/>
            </clipPath>
            <clipPath clipPathUnits="userSpaceOnUse" id="clipPath4">
              <path d="M343 29 L343 142 L646 142 L646 29 Z"/>
            </clipPath>
            <clipPath clipPathUnits="userSpaceOnUse" id="clipPath5">
              <path d="M-402.258 -973.3156 L583.742 -973.3156 L583.742 137.6844 L-402.258 137.6844 L-402.258 -973.3156 Z"/>
            </clipPath>
            <clipPath clipPathUnits="userSpaceOnUse" id="clipPath6">
              <path d="M-232.5979 -52.4483 L753.402 -52.4483 L753.402 1058.5516 L-232.5979 1058.5516 L-232.5979 -52.4483 Z"/>
            </clipPath>
          </defs>
  <metadata id="svg1.metadata6522">
    
  </metadata>
  <g style="display:inline" id="svg1.layer1" transform="translate(268,-635.29076)">
    <path style="fill:#5da029;fill-opacity:1;stroke:none;display:inline" d="m -268,700.15563 0,-33.72973 c 0,-27.24324 3.88785,-31.13513 31.10302,-31.13513 l 33.79408,0 c 27.21507,0 31.1029,3.89189 31.1029,31.13513 l 0,33.72973 c 0,27.24325 -3.88783,31.13514 -31.1029,31.13514 l -33.79408,0 c -27.21517,0 -31.10302,-3.89189 -31.10302,-31.13514 z" id="svg1.path6455"/>
  </g>
  <g style="display:inline" id="svg1.layer3">
    <g style="fill:#ffffff;fill-opacity:1;filter:url(#svg1.filter1121)" id="svg1.layer1-9" transform="matrix(0.09668637,0,0,0.09668637,12.542354,13.445201)">
      <path style="fill:#ffffff;fill-opacity:1;fill-rule:nonzero;stroke:none" d="m 37.69553,27.377234 0,88.999996 c 314.8939,0.54082 570,255.97946 570,571 l 90,0 c 0,-364.50794 -295.4921,-659.999986 -660,-659.999996 z" id="svg1.path3773"/>
      <path d="m 103.57143,698.92859 a 37.142857,53.92857 0 1 1 -74.285713,0 37.142857,53.92857 0 1 1 74.285713,0 z" id="svg1.path3777-1" style="fill:#ffffff;fill-opacity:1;fill-rule:nonzero;stroke:none" transform="matrix(0.88846155,0,0,0.60264902,11.17633,233.6686)"/>
      <path style="fill:#ffffff;fill-opacity:1;fill-rule:nonzero;stroke:none" d="m 37.69553,220.37723 0,88 c 209.3159,0 379,169.68409 379,379 l 88,0 c 0,-257.91697 -209.083,-466.99999 -467,-467 z" id="svg1.path3975"/>
      <path style="fill:#ffffff;fill-opacity:1;fill-rule:nonzero;stroke:none" d="m 37.69553,434.37723 0,88 c 91.127,0 165,73.873 165,165 l 88,0 c 0,-139.728 -113.272,-253 -253,-253 z" id="svg1.path3997"/>
    </g>
  </g>
  <g style="display:none" id="svg1.layer2">
    <g style="display:inline" id="svg1.g4394" transform="translate(-340.00001,-581)">
      <g id="svg1.g855">
        <g style="opacity:0.6;filter:url(#svg1.filter891)" id="svg1.g870" clip-path="url(#svg1.clipPath873)">
          <path d="m 264,552.36218 a 12,12 0 1 1 -24,0 12,12 0 1 1 24,0 z" id="svg1.path844" style="color:#000000;fill:#000000;fill-opacity:1;fill-rule:nonzero;stroke:none;stroke-width:4;marker:none;visibility:visible;display:inline;overflow:visible;enable-background:accumulate" transform="matrix(1.4999992,0,0,1.4999992,-29.999795,-237.54282)"/>
        </g>
        <g id="svg1.g862">
          <path d="m 264,552.36218 a 12,12 0 1 1 -24,0 12,12 0 1 1 24,0 z" id="svg1.path4398" style="color:#000000;fill:#f5f5f5;fill-opacity:1;fill-rule:nonzero;stroke:none;stroke-width:4;marker:none;visibility:visible;display:inline;overflow:visible;enable-background:accumulate" transform="matrix(1.4999992,0,0,1.4999992,-29.999795,-238.54282)"/>
          <path d="m 264,552.36218 a 12,12 0 1 1 -24,0 12,12 0 1 1 24,0 z" id="svg1.path4400" style="color:#000000;fill:#dd4814;fill-opacity:1;fill-rule:nonzero;stroke:none;stroke-width:4;marker:none;visibility:visible;display:inline;overflow:visible;enable-background:accumulate" transform="matrix(1.25,0,0,1.25,33,-100.45273)"/>
          <path d="m 669.8173,595.77657 c -0.39132,0.22593 -3.62645,-1.90343 -4.07583,-1.95066 -0.44938,-0.0472 -4.05653,1.36297 -4.39232,1.06062 -0.3358,-0.30235 0.68963,-4.03715 0.59569,-4.47913 -0.0939,-0.44198 -2.5498,-3.43681 -2.36602,-3.8496 0.18379,-0.41279 4.05267,-0.59166 4.44398,-0.81759 0.39132,-0.22593 2.48067,-3.48704 2.93005,-3.4398 0.44938,0.0472 1.81505,3.67147 2.15084,3.97382 0.3358,0.30236 4.08294,1.2817 4.17689,1.72369 0.0939,0.44198 -2.9309,2.86076 -3.11469,3.27355 -0.18379,0.41279 0.0427,4.27917 -0.34859,4.5051 z" id="svg1.path4459" style="color:#000000;fill:#f5f5f5;fill-opacity:1;fill-rule:nonzero;stroke:none;stroke-width:3;marker:none;visibility:visible;display:inline;overflow:visible;enable-background:accumulate" transform="matrix(1.511423,-0.16366377,0.16366377,1.511423,-755.37346,-191.93651)"/>
        </g>
      </g>
    </g>
  </g>
</svg>
      </g>
    </g>
    <g fill="rgb(153,153,153)" text-rendering="geometricPrecision" shape-rendering="geometricPrecision" transform="matrix(1,0,0,1,92,425)" stroke="rgb(153,153,153)">
      <rect x="310.258" width="96" height="30" y="509.7765" clip-path="url(#clipPath2)" stroke="none"/>
    </g>
    <g text-rendering="geometricPrecision" stroke-miterlimit="1.45" shape-rendering="geometricPrecision" font-family="sans-serif" transform="matrix(1,0,0,1,92,425)" stroke-linecap="butt">
      <text x="327.2648" xml:space="preserve" y="528.9308" clip-path="url(#clipPath2)" stroke="none">Serial Port</text>
      <rect fill="none" x="310.258" width="96" height="30" y="509.7765" clip-path="url(#clipPath2)"/>
      <path fill="none" d="M358.258 394.4494 L358.258 465.2919" clip-path="url(#clipPath2)" stroke="rgb(51,102,255)"/>
      <path fill="rgb(51,102,255)" d="M358.258 386.4494 L353.258 398.4494 L358.258 395.4494 L363.258 398.4494 Z" clip-path="url(#clipPath2)" stroke="none"/>
      <path fill="rgb(51,102,255)" d="M358.258 473.2919 L363.258 461.2919 L358.258 464.2919 L353.258 461.2919 Z" clip-path="url(#clipPath2)" stroke="none"/>
    </g>
    <g fill="rgb(245,245,245)" text-rendering="geometricPrecision" shape-rendering="geometricPrecision" transform="matrix(1,0,0,1,92,425)" stroke="rgb(245,245,245)">
      <rect x="95.875" y="-409.0126" clip-path="url(#clipPath2)" width="146" rx="4" ry="4" height="168.5908" stroke="none"/>
      <rect x="95.875" y="-409.0126" clip-path="url(#clipPath2)" fill="rgb(235,235,235)" width="146" height="21.4609" stroke="none"/>
    </g>
    <g font-size="15px" stroke-linecap="butt" transform="matrix(1,0,0,1,92,425)" text-rendering="geometricPrecision" font-family="sans-serif" shape-rendering="geometricPrecision" stroke-miterlimit="1.45">
      <text x="205.6855" xml:space="preserve" y="-393.0893" clip-path="url(#clipPath2)" stroke="none">User</text>
      <rect x="95.875" y="-409.0126" clip-path="url(#clipPath2)" fill="none" width="146" stroke-dasharray="6,2" rx="4" ry="4" height="168.5908"/>
    </g>
    <g fill="silver" text-rendering="geometricPrecision" shape-rendering="geometricPrecision" transform="matrix(1,0,0,1,92,425)" stroke="silver">
      <rect x="110.875" width="116" height="30" y="-285.4219" clip-path="url(#clipPath2)" stroke="none"/>
    </g>
    <g text-rendering="geometricPrecision" stroke-miterlimit="1.45" shape-rendering="geometricPrecision" font-family="sans-serif" transform="matrix(1,0,0,1,92,425)" stroke-linecap="butt">
      <text x="123.626" xml:space="preserve" y="-266.2676" clip-path="url(#clipPath2)" stroke="none">Command Line</text>
      <rect fill="none" x="110.875" width="116" height="30" y="-285.4219" clip-path="url(#clipPath2)"/>
    </g>
    <g text-rendering="geometricPrecision" shape-rendering="geometricPrecision" transform="matrix(1,0,0,1,232.5979,52.4483)">
      <g clip-path="url(#clipPath6)">
        <svg xml:space="preserve" opacity="1" writing-mode="lr-tb" stop-color="rgb(0, 0, 0)" shape-rendering="auto" glyph-orientation-horizontal="0deg" color-profile="auto" lighting-color="rgb(255, 255, 255)" color="rgb(0, 0, 0)" font-weight="400" alignment-baseline="auto" font-style="normal" version="1.1" color-interpolation-filters="linearrgb" text-anchor="start" stroke-linecap="butt" color-interpolation="srgb" font-variant="normal" word-spacing="normal" fill-opacity="1" text-rendering="auto" clip-path="none" text-decoration="none" letter-spacing="normal" viewBox="0 0 57 67" glyph-orientation-vertical="auto" display="inline" font-size-adjust="none" overflow="visible" fill="rgb(0, 0, 0)" font-stretch="normal" stroke-dasharray="none" id="svg2.Ebene_1" stroke-miterlimit="4" stop-opacity="1" color-rendering="auto" font-size="12" pointer-events="visiblepainted" mask="none" direction="ltr" baseline-shift="baseline" enable-background="new 0 0 57 67" fill-rule="nonzero" image-rendering="auto" stroke-dashoffset="0" width="57px" marker-end="none" clip="auto" cursor="auto" stroke="none" filter="none" visibility="visible" kerning="auto" stroke-width="1" font-family="&quot;Arial&quot;,&quot;Helvetica&quot;,sans-serif" flood-opacity="1" clip-rule="nonzero" src="none" height="67px" unicode-bidi="normal" stroke-linejoin="miter" stroke-opacity="1" flood-color="rgb(0, 0, 0)" dominant-baseline="auto" marker-start="none" x="0px" marker-mid="none" y="0px">
<g>
	
		<linearGradient gradientTransform="matrix(1 0 0 1 0.3203 -3091.7656)" x1="26.3398" x2="27.5807" gradientUnits="userSpaceOnUse" y1="3115.7266" y2="3145.5239" id="svg2.SVGID_1_">
		<stop offset="0.2711" style="stop-color:#FFAB4F"/>
		<stop offset="1" style="stop-color:#FFD28F"/>
	</linearGradient>
	<path fill="url(#svg2.SVGID_1_)" d="M49.529,51.225c-4.396-4.396-10.951-5.884-12.063-6.109   V37.8H19.278c0,0,0.038,6.903,0,6.868c0,0-6.874,0.997-12.308,6.432C1.378,56.691,0.5,62.77,0.5,62.77   c0,1.938,1.575,3.492,3.523,3.492h48.51c1.947,0,3.521-1.558,3.521-3.492C56.055,62.768,54.211,55.906,49.529,51.225z" stroke-miterlimit="10" stroke="#ED9135"/>
	
		<radialGradient gradientTransform="matrix(1 0 0 1 0.3203 -3091.7656)" gradientUnits="userSpaceOnUse" r="23.425" cx="27.5835" id="svg2.face_x5F_white_1_" cy="3117.4922" fx="23.0139" fy="3115.0024">
		<stop offset="0" style="stop-color:#FFD28F"/>
		<stop offset="1" style="stop-color:#FFAB4F"/>
	</radialGradient>
	<path fill="url(#svg2.face_x5F_white_1_)" id="svg2.face_x5F_white_3_" d="M43.676,23.357   c0.086,10.199-6.738,18.52-15.25,18.586c-8.5,0.068-15.464-8.146-15.55-18.344C12.794,13.4,19.618,5.079,28.123,5.012   C36.627,4.945,43.59,13.158,43.676,23.357z" stroke-miterlimit="10" stroke="#ED9135"/>
	
		<linearGradient gradientTransform="matrix(0.275 0 0 -0.2733 -1752.8849 -3350.4617)" x1="6468.5" x2="6492.1294" gradientUnits="userSpaceOnUse" y1="-12286.8594" y2="-12380.3086" id="svg2.face_highlight_1_">
		<stop offset="0" style="stop-color:#FFFFFF;stop-opacity:0.24"/>
		<stop offset="1" style="stop-color:#FFFFFF;stop-opacity:0.16"/>
	</linearGradient>
	<path fill="url(#svg2.face_highlight_1_)" id="svg2.face_highlight_3_" d="M28.415,5.625c-6.035,0.047-10.747,4.493-12.787,10.386   c-0.664,1.919-0.294,4.043,0.98,5.629c2.73,3.398,5.729,6.283,9.461,8.088c3.137,1.518,7.535,2.385,11.893,1.247   c2.274-0.592,3.988-2.459,4.375-4.766c0.187-1.094,0.293-2.289,0.283-3.553C42.54,13.244,36.729,5.56,28.415,5.625z"/>
	<path fill="#5C5C5C" d="M28.372,0.5   C17.537,0.5,8.269,7.748,9.153,26.125c0.563,6.563,5.862,12.042,9.366,13.531c-2.929-10.968-0.304-25.021-0.585-25.526   c-0.281-0.505,3.536,6.728,3.536,6.728l3.183-8.312c5.541,4.28,0.393,11.309,1.049,11.058c4.26-1.631,5.34-9.228,5.34-9.228   s2.729,3.657,2.701,5.504c-0.054,3.562,2.194-6.067,2.194-6.067l1.027,2.031c6.727,9.822,3.684,16.208,1.648,22.781   c15.666-0.703,12.291-10.48,9.66-18.407C43.59,6.092,39.206,0.5,28.372,0.5z" id="svg2.Hair_Female_1_Black_1_" stroke="#353535" stroke-linecap="round" stroke-linejoin="round"/>
	
		<linearGradient gradientTransform="matrix(0.9852 0 0 -0.9852 -34.4844 -3031.9851)" x1="95.9063" x2="31.5133" gradientUnits="userSpaceOnUse" y1="-3134.2153" y2="-3134.2153" id="svg2.body_1_">
		<stop offset="0" style="stop-color:#49AD33"/>
		<stop offset="1" style="stop-color:#C2DA92"/>
	</linearGradient>
	<path fill="url(#svg2.body_1_)" d="M0.5,62.768c0,1.938,1.575,3.494,3.523,3.494h48.51   c1.947,0,3.521-1.559,3.521-3.494c0,0-1.844-6.861-6.525-11.543c-4.815-4.813-8.244-5.146-8.244-5.146   c-1.444,6.983-8.555,8.786-13.007,8.786s-11.322-2.643-11.941-9.439c0,0-4.559,1.199-9.367,5.674   C1.378,56.689,0.5,62.768,0.5,62.768z" id="svg2.body_8_" stroke="#008D33"/>
</g>
</svg>
      </g>
    </g>
    <g stroke-linecap="butt" transform="matrix(1,0,0,1,92,425)" fill="rgb(51,102,255)" text-rendering="geometricPrecision" shape-rendering="geometricPrecision" stroke="rgb(51,102,255)" stroke-miterlimit="1.45">
      <path fill="none" d="M218.7237 -232.4235 L218.7237 -119.2016" clip-path="url(#clipPath2)"/>
      <path d="M218.7237 -240.4235 L213.7237 -228.4235 L218.7237 -231.4235 L223.7237 -228.4235 Z" clip-path="url(#clipPath2)" stroke="none"/>
      <path d="M218.7237 -111.2016 L223.7237 -123.2016 L218.7237 -120.2016 L213.7237 -123.2016 Z" clip-path="url(#clipPath2)" stroke="none"/>
      <text x="256.7257" xml:space="preserve" y="-250.2363" clip-path="url(#clipPath2)" font-family="sans-serif" stroke="none">String to Hex</text>
      <text x="256.7257" xml:space="preserve" y="-236.2676" clip-path="url(#clipPath2)" font-family="sans-serif" stroke="none">Hex to String</text>
      <text x="263.4757" xml:space="preserve" y="-222.2988" clip-path="url(#clipPath2)" font-family="sans-serif" stroke="none">conversion</text>
      <path fill="none" d="M119.0263 -240.4059 L119.0263 -119.1965" clip-path="url(#clipPath2)" stroke="black"/>
      <path fill="black" d="M119.0263 -111.1965 L124.0263 -123.1965 L119.0263 -120.1965 L114.0263 -123.1965 Z" clip-path="url(#clipPath2)" stroke="none"/>
      <text x="11.2501" y="-205.5973" clip-path="url(#clipPath2)" fill="black" font-family="sans-serif" stroke="none" xml:space="preserve">CL Parameter</text>
    </g>
  </g>
</svg>
